<svg width="514" height="3348" viewBox="0 0 514 3348" fill="none" xmlns="http://www.w3.org/2000/svg">
<path d="M1 1H514V2718C514 3001.32 284.322 3231 1 3231V3231V1Z" fill="#272727"/>
<rect x="-21" y="1" width="535" height="483" fill="#486AE5"/>
<rect x="3" y="1768" width="511" height="483" fill="#F1F511"/>
<path d="M-83 2251H514V2736.62C514 3050.72 223.966 3284.59 -83 3218V3218V2251Z" fill="#EB3757"/>
<path d="M14.0505 5.51087C6.04837 -1.69671 -6.28154 -1.05261 -13.4891 6.94951C-20.6967 14.9516 -20.0526 27.2815 -12.0505 34.4891L14.0505 5.51087ZM481.45 478.989C489.452 486.197 501.782 485.553 508.989 477.55C516.197 469.548 515.553 457.218 507.55 450.011L481.45 478.989ZM-12.0505 34.4891L481.45 478.989L507.55 450.011L14.0505 5.51087L-12.0505 34.4891Z" fill="#F7CF42"/>
<path d="M481.45 5.51087C489.452 -1.69671 501.782 -1.05261 508.989 6.94951C516.197 14.9516 515.553 27.2815 507.55 34.4891L481.45 5.51087ZM14.0505 478.989C6.04837 486.197 -6.28154 485.553 -13.4891 477.55C-20.6967 469.548 -20.0526 457.218 -12.0505 450.011L14.0505 478.989ZM507.55 34.4891L14.0505 478.989L-12.0505 450.011L481.45 5.51087L507.55 34.4891Z" fill="#F7CF42"/>
<circle cx="258.5" cy="2010.5" r="224.5" fill="#2C2B2B"/>
<rect x="-185" y="2251" width="699" height="376" fill="#2C2B2B"/>
<rect x="75.5723" y="2438.85" width="249.297" height="249.297" transform="rotate(-45 75.5723 2438.85)" fill="#486AE5"/>
</svg>
