<svg width="3375" height="384" viewBox="0 0 3375 384" fill="none" xmlns="http://www.w3.org/2000/svg">
<path d="M586 222.499C379.2 237.699 -1 219.999 -159.5 77.999C-212.667 289.832 -326.5 557.199 -326.5 617.999C-326.5 678.799 2350.83 592.666 3689.5 541.999C3835.33 475.999 3986.9 343.799 3320.5 282.999C2487.5 206.999 2069 96.999 1540.5 146.499C1012 195.999 844.5 203.499 586 222.499Z" fill="#486AE5"/>
<path d="M593.29 329.622C387.703 356.667 7.11405 360.82 -159.275 228.152C-200.195 442.687 -298.494 716.147 -295.004 776.847C-291.514 837.547 2376.46 597.878 3710.01 470.457C3851.82 396.195 3995.55 255.513 3326.75 233.064C2490.77 205.003 2066.64 119.206 1541.85 198.96C1017.07 278.714 850.273 295.816 593.29 329.622Z" fill="#2347CA"/>
</svg>
