<svg width="659" height="140" viewBox="0 0 659 140" fill="none" xmlns="http://www.w3.org/2000/svg">
<rect opacity="0.6" x="2" y="2" width="655" height="136" stroke="white" stroke-width="4"/>
<path opacity="0.6" d="M4 136.5L656 4V136.5L4 4V136.5Z" stroke="white" stroke-width="4"/>
<path d="M317.203 91H309.82V72.0449H290.748V91H283.336V48.3438H290.748V66.0977H309.82V48.3438H317.203V91ZM370.487 80.0137C370.487 78.1387 369.823 76.6934 368.495 75.6777C367.186 74.6621 364.813 73.6367 361.376 72.6016C357.938 71.5664 355.204 70.4141 353.173 69.1445C349.286 66.7031 347.343 63.5195 347.343 59.5938C347.343 56.1562 348.739 53.3242 351.532 51.0977C354.345 48.8711 357.987 47.7578 362.46 47.7578C365.429 47.7578 368.075 48.3047 370.399 49.3984C372.723 50.4922 374.55 52.0547 375.878 54.0859C377.206 56.0977 377.87 58.334 377.87 60.7949H370.487C370.487 58.5684 369.784 56.8301 368.378 55.5801C366.991 54.3105 364.999 53.6758 362.401 53.6758C359.979 53.6758 358.095 54.1934 356.747 55.2285C355.419 56.2637 354.755 57.709 354.755 59.5645C354.755 61.127 355.477 62.4355 356.923 63.4902C358.368 64.5254 360.751 65.541 364.071 66.5371C367.391 67.5137 370.057 68.6367 372.069 69.9062C374.081 71.1562 375.555 72.6016 376.493 74.2422C377.43 75.8633 377.899 77.7676 377.899 79.9551C377.899 83.5098 376.532 86.3418 373.798 88.4512C371.083 90.541 367.391 91.5859 362.723 91.5859C359.637 91.5859 356.796 91.0195 354.198 89.8867C351.62 88.7344 349.608 87.1523 348.163 85.1406C346.737 83.1289 346.024 80.7852 346.024 78.1094H353.436C353.436 80.5312 354.237 82.4062 355.839 83.7344C357.44 85.0625 359.735 85.7266 362.723 85.7266C365.302 85.7266 367.235 85.209 368.524 84.1738C369.833 83.1191 370.487 81.7324 370.487 80.0137Z" fill="white"/>
</svg>
