<svg width="797" height="776" viewBox="0 0 797 776" fill="none" xmlns="http://www.w3.org/2000/svg">
<path d="M295.346 130.594C371.346 93.5941 450.846 132.094 475.346 147.094C555.847 176.682 792.846 378.594 695.846 483.594C598.846 588.594 644.346 599.094 610.346 653.594C576.346 708.094 322.846 686.594 246.346 667.594C169.846 648.594 134.846 467.094 103.346 354.094C71.8461 241.094 219.346 167.594 295.346 130.594Z" fill="#486AE5" fill-opacity="0.6"/>
<path d="M455.088 617.263C421.378 614.226 418.265 594.739 420.922 585.375L399.284 570.19C397.639 600.307 389.349 647.633 420.922 657.883C446.323 666.129 497.226 656.744 509.754 647.633C522.281 638.522 497.226 621.06 455.088 617.263Z" fill="#242424"/>
<path d="M250.008 397.823C242.847 359.599 257.195 323.793 265.265 310.668C277.709 302.601 304.227 286.979 310.742 289.032C318.886 291.598 320.226 298.968 329.371 319.017C338.517 339.065 330.86 336.244 339.064 367.031C347.267 397.818 367.256 404.117 391.392 416.628C415.528 429.138 440.202 452.854 447.085 477.503C453.967 502.151 459.083 604.718 459.602 614.691C460.122 624.664 406.788 622.163 384.564 606.167C362.34 590.172 379.075 568.061 375.23 516.985C371.386 465.91 359.109 466.128 336.294 459.756C313.479 453.384 258.96 445.604 250.008 397.823Z" fill="#D9216E"/>
<path d="M511.716 624.256C478.112 620.866 475.009 599.113 477.658 588.66L456.088 571.709C454.448 605.328 449.968 662.819 477.658 669.599C503.665 675.968 553.721 668.328 566.209 658.158C578.697 647.987 553.721 628.494 511.716 624.256Z" fill="#353535"/>
<path d="M461.782 245.114C486.382 221.426 520.37 228.158 534.29 234.485C585.159 237.079 617.806 276.243 607.177 314.964C596.548 353.686 505.059 368.871 483.421 365.834C461.783 362.797 435.589 333.186 449.635 302.437C463.68 271.688 431.033 274.725 461.782 245.114Z" fill="#303030"/>
<path d="M377.445 307.689C366.635 299.386 370.384 262.403 368.61 244.112C350.117 229.504 335.44 256.738 330.413 272.181C332.485 312.94 354.115 321.382 361.943 329.4C368.49 336.107 393.082 348.922 407.475 351.347C416.989 352.95 446.912 316.763 451.86 310.687C452.333 310.108 452.644 309.456 452.809 308.727C453.552 305.461 455.669 295.919 455.545 293.79C455.358 290.554 451.586 293.058 454.57 288.932C456.958 285.632 457.649 282.725 456.749 282.019L447.214 295.479C440.612 302.687 445.19 308.773 420.341 321.206C403.185 329.79 392.361 319.144 377.445 307.689Z" fill="#E49494"/>
<path d="M299.672 401.429C292.471 363.332 306.775 327.669 314.827 314.6C327.258 306.575 353.748 291.038 360.264 293.091C368.407 295.657 369.755 303.003 378.92 322.991C388.084 342.978 380.428 340.158 388.662 370.845C396.897 401.533 416.886 407.832 441.028 420.325C465.169 432.818 489.861 456.478 496.768 481.047C503.676 505.616 508.904 607.825 509.435 617.764C509.965 627.702 456.648 625.15 434.414 609.186C412.18 593.223 428.883 571.209 424.983 520.309C421.083 469.41 408.811 469.614 385.997 463.239C363.183 456.864 308.675 449.051 299.672 401.429Z" fill="#F1237A"/>
<path d="M305.294 389.164C303.32 361.247 324.347 326.747 332.986 322.22C344.917 323.033 370.163 325.77 375.693 330.215C382.606 335.771 382.95 341.134 388.753 358.366C394.557 375.597 330.06 362.368 333.804 386.023C337.549 409.678 406.578 426.357 426.505 445.964C446.432 465.571 458.051 492.148 466.02 509.802C475.586 530.993 490.365 617.697 470.233 610.263C441.314 599.583 436.265 583.403 433.513 553.111C431.025 525.731 437.155 528.997 427.922 486.268C420.605 452.412 375.6 456.382 356.141 441.34C336.682 426.298 307.761 424.06 305.294 389.164Z" fill="#E80C68" fill-opacity="0.3"/>
<path d="M247.632 317.897C261.311 276.638 269.449 233.94 291.669 217.137C312.49 220.439 344.489 222.777 360.17 238.723C384.203 263.163 381.021 263.861 386.45 293.628C392.322 325.824 395.784 387.539 372.786 386.668C349.788 385.798 348.523 388.512 289.993 376.869C256.932 370.292 230.533 369.472 247.632 317.897Z" fill="#9F19B5"/>
<path d="M376.964 376.547C337.863 381.861 278.388 370.22 252.068 360.982C241.238 360.982 242.574 366.003 246.572 370.261C249.781 373.677 254.321 375.365 258.831 376.639C287.462 384.721 327.803 392.031 363.924 392.041C375.965 392.045 394.976 390.763 395.121 378.723C395.162 375.321 387.793 375.075 376.964 376.547Z" fill="#E8E3E3"/>
<path d="M268.112 265.015C252.731 301.715 245.034 321.348 246.754 350.28C249.064 353.725 252.913 367.059 258.797 359.148C268.113 346.625 263.655 328.331 269.029 305.155C276.633 272.364 282.154 263.505 298.189 241.552C301.938 236.418 296.915 232.876 289.833 225.125C285.832 220.746 286.933 220.107 268.112 265.015Z" fill="#A44BB3"/>
<path d="M378.186 164.808C389.476 141.745 376.918 119.188 369.228 110.792C349.447 99.098 334.297 119.693 329.195 131.452L309.384 194.319L304.737 209.066C303.269 213.722 301.065 224.973 303.987 232.719C307.64 242.403 337.776 242.514 338.452 235.048C339.129 227.582 330.196 221.355 341.101 200.048C352.006 178.741 364.073 193.636 378.186 164.808Z" fill="#F9A5A5"/>
<path d="M374.478 139.358C381.351 130.942 380.887 125.717 369.288 108.94C358.275 97.0043 341.64 100.228 327.309 104.177C312.978 108.126 322.089 136.817 307.576 145.365C293.062 153.912 291.365 151.261 267.596 146.311C243.828 141.36 215.342 184.869 210.064 205.639C204.785 226.409 247.37 237.289 262.166 230.523C276.962 223.757 274.114 212.701 281.069 201.348C288.023 189.995 300.434 185.441 320.606 180.37C340.779 175.298 367.604 147.774 374.478 139.358Z" fill="#3D3C3C"/>
<path d="M291.277 212.082C296.792 204.257 334.235 215.089 352.266 221.483C372.357 227.814 364.604 244.154 353.1 244.371C341.597 244.588 306.121 240.239 289.17 234.897C272.218 229.555 284.384 221.863 291.277 212.082Z" fill="#D5C7C7"/>
<path d="M368.247 278.637C374.224 298.251 374.88 336.623 393.174 347.284C418.414 361.993 437.141 375.129 462.351 369.083C472.389 366.676 477.577 365.812 480.011 365.69C480.078 365.64 480.148 365.59 480.22 365.539C480.22 365.539 485.015 365.91 491.048 366.113C496.198 366.286 499.009 374 494.785 376.951C479.823 387.403 457.916 400.929 447.607 398.633C424.766 393.546 384.219 375.702 372.844 367.474C359.246 357.637 324.077 344.929 313.692 301.551C318.808 286.136 336.882 259.972 368.247 278.637Z" fill="#E49494"/>
<path d="M327.94 331.498C321.16 324.378 314.942 306.53 314.697 298.36C313.313 302.751 310.694 312.944 311.285 318.582C312.025 325.631 340.98 350.515 340.98 350.515C340.98 350.515 337.792 341.843 327.94 331.498Z" fill="#9B46A9"/>
<path d="M484.851 246.984C488.904 235.767 503.43 236.079 510.186 237.637C555.789 253.119 532.143 256.332 525.387 264.511C518.631 272.691 479.784 261.006 484.851 246.984Z" fill="#9F19B5"/>
<path d="M534.887 276.327C538.941 265.11 548.985 268.726 555.741 270.284C601.344 285.767 562.497 286.749 555.741 294.929C548.985 303.108 529.82 290.349 534.887 276.327Z" fill="#EE1C75"/>
<path d="M542.942 315.813C546.996 304.596 551.288 310.194 558.044 311.752C574.367 322.002 570.552 326.235 563.796 334.415C557.04 342.594 537.875 329.835 542.942 315.813Z" fill="#E49494"/>
<path d="M469.591 267.217L469.971 264.18L466.934 272.911H468.072L474.146 264.939L470.73 267.217L472.628 262.661L469.591 267.217Z" fill="#BD52CE"/>
<path d="M461.238 278.225C457.594 281.566 452.886 291.512 450.988 296.067C454.405 296.067 456.303 296.067 461.238 288.854C465.186 283.084 467.945 274.049 468.83 270.253C467.818 271.518 464.882 274.884 461.238 278.225Z" fill="#AD3C3C"/>
<path d="M482.877 327.956C479.232 316.112 491.987 316.187 498.821 317.706C520.459 323.4 510.968 332.132 508.691 338.206C506.413 344.279 487.432 342.761 482.877 327.956Z" fill="#F2F2F2"/>
</svg>
